<?xml version="1.0" encoding="UTF-8" standalone="no"?>
<!-- Created with Inkscape (http://www.inkscape.org/) -->

<svg
   width="512"
   height="512"
   viewBox="0 0 135.46666 135.46667"
   version="1.1"
   id="svg1"
   xml:space="preserve"
   inkscape:version="1.4.2 (ebf0e940d0, 2025-05-08)"
   sodipodi:docname="cart.svg"
   xmlns:inkscape="http://www.inkscape.org/namespaces/inkscape"
   xmlns:sodipodi="http://sodipodi.sourceforge.net/DTD/sodipodi-0.dtd"
   xmlns="http://www.w3.org/2000/svg"
   xmlns:svg="http://www.w3.org/2000/svg"><sodipodi:namedview
     id="namedview1"
     pagecolor="#505050"
     bordercolor="#eeeeee"
     borderopacity="1"
     inkscape:showpageshadow="0"
     inkscape:pageopacity="0"
     inkscape:pagecheckerboard="0"
     inkscape:deskcolor="#505050"
     inkscape:document-units="mm"
     inkscape:zoom="0.88020764"
     inkscape:cx="270.95879"
     inkscape:cy="326.62748"
     inkscape:window-width="1906"
     inkscape:window-height="1040"
     inkscape:window-x="0"
     inkscape:window-y="0"
     inkscape:window-maximized="1"
     inkscape:current-layer="layer1" /><defs
     id="defs1" /><g
     inkscape:label="Layer 1"
     inkscape:groupmode="layer"
     id="layer1"><path
       style="fill:#1a1a1a;stroke-width:0.92488"
       d="m 49.828837,128.07146 c -4.459446,-1.49708 -7.439229,-4.86571 -8.20604,-9.27688 -0.274541,-1.57933 -0.153359,-3.11505 0.395616,-5.01359 0.158972,-0.54978 0.154743,-0.55061 -2.867007,-0.5535 -4.636694,-0.004 -6.910668,-0.80575 -9.454032,-3.33142 -4.520461,-4.48901 -4.54284,-11.473019 -0.05115,-15.964035 2.39844,-2.398085 5.093374,-3.448675 8.864874,-3.455861 1.236352,-0.0019 1.896487,-0.09918 1.896487,-0.27814 0,-0.271581 -9.223017,-42.004075 -11.945367,-54.050641 L 27.052056,29.907341 15.009662,29.843859 2.9672701,29.780377 V 25.989708 22.199041 H 18.024488 c 11.83342,0 15.076976,0.06549 15.149499,0.305886 0.05075,0.168236 1.15697,5.096042 2.458256,10.950679 1.301285,5.854637 2.419968,10.837502 2.485962,11.073034 0.112871,0.402837 1.179298,0.428238 17.979665,0.428238 h 17.859675 l 0.362804,0.917655 c 0.723903,1.831002 1.461239,3.396677 2.333655,4.955335 l 0.890297,1.590603 -5.476483,0.06576 c -5.38985,0.06473 -5.476484,0.07394 -5.476484,0.582729 0,0.850901 0.979905,12.990643 1.11799,13.850444 l 0.127727,0.795302 h 7.814902 7.814904 l 0.112394,-0.550595 c 0.06182,-0.302825 0.229403,-2.028325 0.372412,-3.834444 0.143007,-1.806118 0.310216,-3.334048 0.371564,-3.395399 0.06132,-0.06134 0.859398,0.436833 1.773448,1.107078 0.914041,0.670243 2.468607,1.69262 3.454586,2.271948 l 1.792686,1.053323 -0.07973,1.68025 -0.07972,1.680249 9.054193,-0.08431 c 9.46402,-0.08813 11.16031,-0.241387 15.16837,-1.370466 0.9402,-0.264852 1.75799,-0.432994 1.81734,-0.373647 0.0594,0.05935 -0.79261,3.548019 -1.89323,7.752605 -1.10063,4.204586 -2.96456,11.415056 -4.14207,16.023267 l -2.14092,8.378566 -36.358212,0.06382 -36.358208,0.06382 -0.876729,0.668744 c -1.732432,1.321435 -2.079721,3.758815 -0.759183,5.328185 1.325649,1.57545 -1.538282,1.46666 38.612816,1.46666 h 36.595986 v 3.79298 3.79298 h -4.18621 c -3.66049,0 -4.16814,0.0471 -4.04227,0.37511 0.50331,1.3116 0.70461,3.60219 0.45107,5.13236 -0.92648,5.59106 -5.632229,9.66441 -11.164844,9.66441 -6.651065,0 -11.772933,-5.35946 -11.320817,-11.84596 0.07591,-1.08903 0.211754,-2.28286 0.301886,-2.65298 l 0.163874,-0.67294 H 71.861656 63.61597 l 0.202974,0.79529 c 0.111636,0.43743 0.202974,1.95156 0.202974,3.36473 0,2.44671 -0.04206,2.6571 -0.880541,4.40475 -1.271408,2.65 -2.758875,4.1837 -5.259171,5.42263 -1.948935,0.96574 -2.192363,1.02444 -4.566595,1.1012 -1.652816,0.0535 -2.841666,-0.031 -3.486754,-0.24753 z m 4.957573,-7.74322 c 1.282467,-0.78192 1.813736,-1.84877 1.712219,-3.43833 -0.05383,-0.84286 -0.267554,-1.60643 -0.564086,-2.0153 -0.697985,-0.96238 -2.395134,-1.73459 -3.439716,-1.56509 -2.122698,0.34448 -3.728354,2.38277 -3.401413,4.31792 0.436788,2.58532 3.499405,4.03825 5.692996,2.7008 z m 38.016506,-0.0463 c 1.011061,-0.56825 1.929828,-2.07343 1.929828,-3.16156 0,-1.18573 -1.027588,-2.75091 -2.202372,-3.3546 -4.192251,-2.15428 -7.638365,4.10742 -3.611676,6.56253 1.069892,0.65232 2.675161,0.63316 3.88422,-0.0463 z M 61.941881,89.950999 c 0,-0.854183 -0.979463,-12.992493 -1.11799,-13.855037 l -0.127727,-0.7953 h -7.819565 c -4.895334,0 -7.819566,0.08889 -7.819566,0.23766 0,0.207466 2.738412,12.918111 3.098847,14.383636 l 0.135413,0.5506 h 6.825294 c 6.802344,0 6.825294,-0.0019 6.825294,-0.521559 z m 19.821342,-0.05133 c 0,-0.695986 0.913076,-11.80821 1.104066,-13.436603 l 0.136332,-1.162361 h -7.343549 -7.343549 l 0.10891,0.672946 c 0.05991,0.370121 0.352483,3.783796 0.650181,7.585946 l 0.54127,6.912998 h 6.073169 6.073168 z m 23.218547,-6.463814 c 0.99363,-3.868681 1.85989,-7.281732 1.92501,-7.584558 l 0.11842,-0.550592 h -8.211255 -8.211246 l -0.13543,1.040008 c -0.144818,1.112051 -1.118097,13.067067 -1.118097,13.733776 0,0.358309 0.691061,0.397967 6.913,0.396719 l 6.913008,-0.0019 z M 60.139486,67.041769 c -0.07058,-0.370121 -0.374662,-3.783796 -0.675742,-7.585946 l -0.547417,-6.912998 h -9.499081 c -5.224493,0 -9.49908,0.06876 -9.49908,0.152805 0,0.30376 3.234439,14.65669 3.343199,14.835554 0.06138,0.100948 3.912939,0.183532 8.559022,0.183532 h 8.447425 z M 101.82928,59.769133 C 91.335557,58.02629 83.043429,50.35159 80.238461,39.785958 79.772032,38.02904 79.69657,37.129404 79.70746,33.455606 c 0.01133,-3.819275 0.08165,-4.53924 0.650329,-6.657478 1.282519,-4.777185 3.601803,-8.704695 7.217092,-12.221535 4.962123,-4.8269919 10.428739,-7.2017306 17.228339,-7.4841048 7.52921,-0.312674 13.92812,1.9909015 19.27078,6.9373798 3.59449,3.327951 6.49827,8.166615 7.7696,12.946725 0.57175,2.149732 0.65006,2.908989 0.6557,6.356659 0.004,2.75856 -0.1107,4.423896 -0.39015,5.636691 -2.41819,10.496588 -10.28356,18.351129 -20.61009,20.581687 -2.45158,0.529546 -7.15409,0.63532 -9.66978,0.217503 z m 8.07537,-18.605227 v -3.792974 h 3.79296 3.79298 V 33.57796 29.784987 h -3.79298 -3.79296 v -3.792973 -3.792973 h -3.79298 -3.79298 v 3.792973 3.792973 h -3.792975 -3.792971 v 3.792973 3.792972 h 3.792971 3.792975 v 3.792974 3.792972 h 3.79298 3.79298 z"
       id="path1" /></g></svg>
